Title:
Vampire

Country:
USA/Canada, 2011

Language:
English

Subtitle:
Japanese

Director:
Shunji Iwai

Writer:
Shunji Iwai

Stars:
Kevin Zegers, Keisha Castle-Hughes, Amanda Plummer

Synopsis:
A vampire, who works as a teacher, searches for suicidal female students and seduces them prior to sucking their blood.

Tivia:

Official Selection Berlin International Film Festival 2011

Official Selection Sundance Film Festival 2011

Imdb: 
http://www.imdb.com/title/tt1624996

Trailer:

Media Info:

Geral
Complete name                            : Vampire.2011.BRRip.XviD.AC3.HORiZON-ArtSubs
Format                                   : AVI
Format/Info                              : Audio Video Interleave
File size                                : 1.75 GiB
Duration                                 : 1h 58mn
Overall bit rate                         : 2 121 Kbps
Writing application                      : FairUse Wizard - http://fairusewizard.com
Writing library                          : The best and REALLY easy backup tool

Vídeo
ID                                       : 0
Format                                   : MPEG-4 Visual
Format profile                           : Advanced Simple@L5
Format settings, BVOP                    : 1
Format settings, QPel                    : Não
Format settings, GMC                     : Sem warppoints
Format settings, Matrix                  : Default (MPEG)
Muxing mode                              : Packed bitstream
Codec ID                                 : XVID
Codec ID/Hint                            : XviD
Duration                                 : 1h 58mn
Bit rate                                 : 1 663 Kbps
Width                                    : 688 pixels
Height                                   : 384 pixels
Display aspect ratio                     : 16:9
Frame rate                               : 23.976 fps
Color space                              : YUV
Chroma subsampling                       : 4:2:0
Bit depth                                : 8 bits
Scan type                                : Progressivo
Bits/(Pixel*Frame)                       : 0.263
Stream size                              : 1.38 GiB (78%)
Writing library                          : XviD 1.2.0.dev47 (UTC 2006-11-01)

Áudio
ID                                       : 1
Format                                   : AC-3
Format/Info                              : Audio Coding 3
Mode extension                           : CM (complete main)
Format settings, Endianness              : Big
Codec ID                                 : 2000
Duration                                 : 1h 58mn
Bit rate mode                            : Constante
Bit rate                                 : 448 Kbps
Channel(s)                               : 6 canais
Channel positions                        : Front: L C R, Side: L R, LFE
Sampling rate                            : 48.0 KHz
Bit depth                                : 16 bits
Stream size                              : 380 MiB (21%)
Alignment                                : Dividir entre as intercalações
Interleave, duration                     : 42 ms (1.00 quadro de vídeo)
Interleave, preload duration             : 500 ms

